<?xml version="1.0" encoding="UTF-8" standalone="no"?>
<!-- Created with Inkscape (http://www.inkscape.org/) -->
<svg xmlns:rdf="http://www.w3.org/1999/02/22-rdf-syntax-ns#" xmlns="http://www.w3.org/2000/svg" height="34" width="98" version="1.1" xmlns:cc="http://creativecommons.org/ns#" xmlns:dc="http://purl.org/dc/elements/1.1/" viewBox="0 0 98 34">
 <g transform="translate(-41.15 -1005)">
  <flowRoot style="word-spacing:0px;letter-spacing:0px" font-weight="300" xml:space="preserve" font-size="22.5px" transform="translate(-2.27 996.7)" line-height="125%" font-family="&apos;Folio Std&apos;" fill="#000000"><flowRegion><rect height="51.17" width="156" y=".004204" x="-.1892"/></flowRegion><flowPara/></flowRoot>
  <g transform="matrix(1.562 0 0 1.562 -12.48 -570.5)">
   <path d="m35.6 1029h6.075v-6.435h5.872v-3.42h-5.872v-2.385h6.39v-3.825h-12.46v16.06z"/>
   <path d="m63.79 1022c0-3.754-2.572-6.694-7.796-6.694s-7.796 2.94-7.796 6.694 2.572 6.694 7.796 6.694 7.796-2.94 7.796-6.694zm-10.29 0c0-2.546 0.8925-3.806 2.494-3.806 1.601 0 2.494 1.26 2.494 3.806s-0.8925 3.806-2.494 3.806c-1.601 0-2.494-1.26-2.494-3.806z"/>
   <path d="m64.86 1029h5.805v-16.06h-5.805v16.06z"/>
   <path d="m73.34 1029h5.04v-12.34h-5.04v12.34zm5.04-14.23v-4.515h-5.04v4.515h5.04z"/>
   <path d="m95.57 1022c0-3.754-2.572-6.694-7.796-6.694s-7.796 2.94-7.796 6.694 2.572 6.694 7.796 6.694 7.796-2.94 7.796-6.694zm-10.29 0c0-2.546 0.8925-3.806 2.494-3.806 1.601 0 2.494 1.26 2.494 3.806s-0.8925 3.806-2.494 3.806c-1.601 0-2.494-1.26-2.494-3.806z"/>
  </g>
 </g>
</svg>
