<?xml version="1.0" standalone="no"?>
<!DOCTYPE svg PUBLIC "-//W3C//DTD SVG 20010904//EN"
 "http://www.w3.org/TR/2001/REC-SVG-20010904/DTD/svg10.dtd">
<svg version="1.0" xmlns="http://www.w3.org/2000/svg"
 width="700.000000pt" height="700.000000pt" viewBox="0 0 700.000000 700.000000"
 preserveAspectRatio="xMidYMid meet">
<metadata>
Created by potrace 1.11, written by Peter Selinger 2001-2013
</metadata>
<g transform="translate(0.000000,700.000000) scale(0.100000,-0.100000)"
fill="#000000" stroke="none">
<path d="M0 3500 l0 -3500 3500 0 3500 0 0 3500 0 3500 -3500 0 -3500 0 0
-3500z m5098 2843 l722 -3 0 -840 0 -840 -558 0 c-307 0 -775 -3 -1040 -7
l-482 -6 0 -162 0 -162 482 -6 c265 -4 694 -7 955 -7 l473 0 0 -775 0 -775
-955 0 -955 0 -2 -1052 -3 -1053 -555 3 c-305 2 -851 3 -1212 2 l-658 0 0
2840 0 2840 658 2 c834 4 2198 4 3130 1z"/>
<path d="M1750 3498 l0 -2408 263 0 c145 0 494 3 775 7 l512 6 0 1049 0 1048
960 0 960 0 -2 338 -3 337 -957 -4 -958 -4 0 610 0 611 203 7 c111 4 580 5
1042 3 l840 -3 0 405 0 405 -1817 0 -1818 0 0 -2407z"/>
</g>
</svg>
